<svg xmlns="http://www.w3.org/2000/svg" viewBox="0 0 287.39 390.9"><defs><style>.cls-1{fill:#19202c;}</style></defs><g id="Layer_2" data-name="Layer 2"><g id="Layer_1-2" data-name="Layer 1"><path class="cls-1" d="M200.11,136.29c-3.64-20.61-22.54-35.57-44.94-35.57a48.83,48.83,0,0,0-7.43.57l-42.55,6.52a2.3,2.3,0,0,0-2,2.62l14,79.21a2.41,2.41,0,0,0,2.41,1.91l.4,0,42.61-6.44C187.36,181.29,204.19,159.4,200.11,136.29Z"/><path class="cls-1" d="M250.77,49.51C221.27,17.58,183.25,0,143.7,0S66.12,17.58,36.62,49.51C8.55,79.89,0,119.12,0,157.15c0,41.28,68.88,150.66,114.44,212.18a2.47,2.47,0,0,0,2,1,2.36,2.36,0,0,0,2.42-2.28,2.05,2.05,0,0,0-.1-.65L69.07,85.64,143,74.31a80.64,80.64,0,0,1,12.2-.93c36.83,0,67.9,24.59,73.88,58.48,6.71,38-21,74-61.75,80.21l-42.57,6.42a2.49,2.49,0,0,0-1.59.92,2.15,2.15,0,0,0-.43,1.7L152.36,389a2.36,2.36,0,0,0,1.86,1.85,2.57,2.57,0,0,0,.55.06,2.51,2.51,0,0,0,2-.95c41.55-54.22,130.63-185.45,130.63-232.8C287.39,119.12,278.84,79.89,250.77,49.51Z"/></g></g></svg>