<svg xmlns="http://www.w3.org/2000/svg" viewBox="0 0 1187.61 390.9"><defs><style>.cls-1,.cls-2{fill:#19202c;}.cls-2{opacity:0.7;}</style></defs><g id="Layer_2" data-name="Layer 2"><g id="Layer_1-2" data-name="Layer 1"><path class="cls-1" d="M200.11,136.29c-3.64-20.61-22.54-35.57-44.94-35.57a48.83,48.83,0,0,0-7.43.57l-42.55,6.52a2.3,2.3,0,0,0-2,2.62l14,79.21a2.41,2.41,0,0,0,2.41,1.91l.4,0,42.61-6.44C187.36,181.29,204.19,159.4,200.11,136.29Z"/><path class="cls-1" d="M250.77,49.51C221.27,17.58,183.25,0,143.7,0S66.12,17.58,36.62,49.51C8.55,79.89,0,119.12,0,157.15c0,41.28,68.88,150.66,114.44,212.18a2.47,2.47,0,0,0,2,1,2.36,2.36,0,0,0,2.42-2.28,2.05,2.05,0,0,0-.1-.65L69.07,85.64,143,74.31a80.64,80.64,0,0,1,12.2-.93c36.83,0,67.9,24.59,73.88,58.48,6.71,38-21,74-61.75,80.21l-42.57,6.42a2.49,2.49,0,0,0-1.59.92,2.15,2.15,0,0,0-.43,1.7L152.36,389a2.36,2.36,0,0,0,1.86,1.85,2.57,2.57,0,0,0,.55.06,2.51,2.51,0,0,0,2-.95c41.55-54.22,130.63-185.45,130.63-232.8C287.39,119.12,278.84,79.89,250.77,49.51Z"/><path class="cls-1" d="M332.11,197.47,314,254.06H290.79L349.92,74.15H377l59.39,179.91h-24l-18.59-56.59Zm57.06-18.15-17-51.79c-3.87-11.74-6.46-22.42-9-32.83h-.51c-2.59,10.68-5.43,21.62-8.78,32.57l-17.05,52.05Z"/><path class="cls-1" d="M456.64,76.55c11.36-2.4,27.63-3.74,43.13-3.74,24,0,39.5,4.54,50.35,14.68,8.78,8,13.69,20.29,13.69,34.17,0,23.76-14.46,39.51-32.8,45.91v.81c13.43,4.8,21.43,17.61,25.57,36.3,5.68,25.09,9.81,42.44,13.42,49.38H546.76c-2.84-5.07-6.71-20.55-11.62-43-5.16-24.83-14.46-34.17-34.86-35H479.11v77.94H456.64Zm22.47,82h23c24,0,39.25-13.61,39.25-34.17,0-23.22-16.27-33.37-40-33.63-10.85,0-18.6,1.06-22.21,2.13Z"/><path class="cls-1" d="M593.42,74.15h22.47V160.9h.77c4.65-6.94,9.3-13.35,13.69-19.22l53.19-67.53h27.89l-63,76.34,67.92,103.57h-26.6l-57.33-88.35-16.52,19.75v68.6H593.42Z"/><path class="cls-2" d="M732.57,76.28a252,252,0,0,1,43.13-3.47c22.2,0,38.47,5.34,48.8,15,9.56,8.54,15.24,21.62,15.24,37.64,0,16.28-4.65,29.1-13.43,38.44-11.88,13.08-31.25,19.75-53.2,19.75-6.71,0-12.91-.27-18.07-1.6v72.07H732.57ZM755,163c4.91,1.33,11.1,1.87,18.59,1.87,27.11,0,43.64-13.62,43.64-38.44,0-23.76-16.27-35.24-41.06-35.24-9.81,0-17.3.8-21.17,1.87Z"/><path class="cls-2" d="M884.35,74.15V254.06H861.89V74.15Z"/><path class="cls-2" d="M1042.49,248.19c-8.26,4.27-24.79,8.54-46,8.54-49.06,0-86-32-86-91,0-56.33,36.92-94.5,90.89-94.5,21.69,0,35.38,4.81,41.32,8l-5.43,19c-8.52-4.27-20.65-7.47-35.11-7.47-40.8,0-67.92,27-67.92,74.21,0,44,24.53,72.34,66.88,72.34,13.69,0,27.63-2.94,36.67-7.48Z"/><path class="cls-2" d="M1063.86,74.15h22.47V160.9h.77c4.65-6.94,9.3-13.35,13.69-19.22L1154,74.15h27.89l-63,76.34,67.92,103.57h-26.6l-57.32-88.35-16.53,19.75v68.6h-22.47Z"/><path class="cls-1" d="M298.64,345.85V295.16h-13V284.84h34.78v10.32h-13v50.69Z"/><path class="cls-1" d="M328.26,345.85v-61h8.81v24h17.37v-24h8.81v61h-8.81V319.17H337.07v26.68Z"/><path class="cls-1" d="M375,345.85v-61h32.47v10.32H383.82v13.53h22V319h-22v16.56h24.46v10.32Z"/><path class="cls-1" d="M440.24,345.85v-61h32.48v10.32H449.05v13.53h22V319h-22v16.56h24.47v10.32Z"/><path class="cls-1" d="M524.1,345.85h-9.58L510.69,332H493.17l-3.62,13.82h-9.39l17-61h9.36Zm-16.25-24.14-6.05-22.63-5.93,22.63Z"/><path class="cls-1" d="M528.08,326l8.63-1.17q1.45,11.7,9.54,11.69a8.3,8.3,0,0,0,6.3-2.39,8.21,8.21,0,0,0,2.29-5.92,7.29,7.29,0,0,0-.8-3.54,6.24,6.24,0,0,0-2.44-2.39,63.41,63.41,0,0,0-7.94-3.14,25.34,25.34,0,0,1-8.26-4.24,15.77,15.77,0,0,1-4.17-6,20.63,20.63,0,0,1-1.55-8,19.79,19.79,0,0,1,2-9,13.94,13.94,0,0,1,5.48-6,16.84,16.84,0,0,1,8.62-2q7.72,0,12.06,4.79t4.58,13.69l-8.84.54q-.59-4.9-2.52-6.87a7.38,7.38,0,0,0-5.49-1.95,8.06,8.06,0,0,0-5.5,1.7,5.39,5.39,0,0,0-1.93,4.23,5.59,5.59,0,0,0,1.75,4.19q1.75,1.69,8,3.74,6.66,2.2,9.63,4.64a15.73,15.73,0,0,1,4.53,6.28,24.92,24.92,0,0,1,1.56,9.35,20.88,20.88,0,0,1-4.28,13.35q-4.27,5.41-13.38,5.41Q529.9,346.89,528.08,326Z"/><path class="cls-1" d="M573.41,345.85v-61h8.81v61Z"/><path class="cls-1" d="M593.66,345.85v-61h32.47v10.32H602.47v13.53h22V319h-22v16.56h24.47v10.32Z"/><path class="cls-1" d="M633.83,326l8.62-1.17q1.47,11.7,9.54,11.69a8,8,0,0,0,8.6-8.31,7.29,7.29,0,0,0-.8-3.54,6.24,6.24,0,0,0-2.44-2.39,64.11,64.11,0,0,0-7.94-3.14,25.41,25.41,0,0,1-8.27-4.24,15.87,15.87,0,0,1-4.16-6,20.45,20.45,0,0,1-1.55-8,19.92,19.92,0,0,1,2-9,13.94,13.94,0,0,1,5.48-6,16.88,16.88,0,0,1,8.63-2q7.72,0,12.05,4.79t4.59,13.69l-8.85.54c-.39-3.27-1.22-5.56-2.51-6.87a7.4,7.4,0,0,0-5.5-1.95,8.08,8.08,0,0,0-5.5,1.7,5.42,5.42,0,0,0-1.93,4.23,5.6,5.6,0,0,0,1.76,4.19c1.16,1.13,3.85,2.38,8,3.74q6.66,2.2,9.62,4.64a15.54,15.54,0,0,1,4.53,6.28,24.71,24.71,0,0,1,1.57,9.35,20.88,20.88,0,0,1-4.28,13.35q-4.27,5.41-13.38,5.41Q635.65,346.89,633.83,326Z"/><path class="cls-1" d="M688.54,345.85V295.16h-13V284.84h34.77v10.32h-13v50.69Z"/><path class="cls-1" d="M746.72,345.85l-10.49-61h9.06l6.58,41.93,8-41.93H770.4l7.68,42.64,6.75-42.64h8.89l-10.63,61h-9.41l-8.74-45.63-8.67,45.63Z"/><path class="cls-1" d="M838.07,345.85h-9.58L824.66,332H807.14l-3.62,13.82h-9.39l17-61h9.36Zm-16.26-24.14-6-22.63-5.93,22.63Z"/><path class="cls-1" d="M851.11,345.85V320.16l-16-35.32h10.34L855.72,309l10.14-24.13H876l-16.1,35.41v25.6Z"/><path class="cls-1" d="M914.71,345.85V295.16h-13V284.84h34.77v10.32h-13v50.69Z"/><path class="cls-1" d="M941.65,315.72q0-10.91,2.82-18t7.37-10.5a17.72,17.72,0,0,1,11-3.46q9.4,0,15.31,8.2t5.92,23.35q0,15.3-6.26,23.92a18.57,18.57,0,0,1-29.93.09Q941.64,330.74,941.65,315.72Zm9.1-.42q0,10.53,3.5,15.8t8.68,5.26q5.21,0,8.64-5.22t3.43-16q0-10.62-3.34-15.69c-2.22-3.39-5.14-5.08-8.73-5.08s-6.53,1.71-8.79,5.12S950.75,308.15,950.75,315.3Z"/><path class="cls-1" d="M1015.48,345.85v-61h14.2q7.93,0,10.37.88a12.22,12.22,0,0,1,6.43,6q2.52,4.62,2.53,11.9a25.1,25.1,0,0,1-2.19,11.09,13.7,13.7,0,0,1-5.46,6.29c-2.18,1.2-5.95,1.81-11.28,1.81h-5.79v23Zm8.81-50.69v17.36h4.89q4.92,0,6.69-.8a6.23,6.23,0,0,0,2.9-2.85,11.84,11.84,0,0,0,0-10.2,6.09,6.09,0,0,0-2.88-2.8q-1.72-.71-7.27-.71Z"/><path class="cls-1" d="M1094,345.85h-9.58L1080.55,332H1063l-3.62,13.82H1050l17-61h9.36Zm-16.26-24.14-6-22.63-5.93,22.63Z"/><path class="cls-1" d="M1101.33,345.85v-61h18.61q7.13,0,10.19,1.65a12.14,12.14,0,0,1,5,5.7,22.07,22.07,0,0,1,2,9.71q0,7.17-3,11.53a13.05,13.05,0,0,1-8.54,5.49,24.12,24.12,0,0,1,4.7,5.1,75.9,75.9,0,0,1,5.06,9.93l5.31,11.9h-10.54l-6.39-13.28a91.69,91.69,0,0,0-4.69-9,7.33,7.33,0,0,0-2.62-2.49,10.63,10.63,0,0,0-4.45-.69h-1.82v25.47Zm8.81-35.21h6.56q6,0,7.64-.6a5,5,0,0,0,2.66-2.43,10,10,0,0,0,1-4.87,9.33,9.33,0,0,0-1-4.68,5.37,5.37,0,0,0-2.77-2.44c-.82-.3-3.21-.46-7.17-.46h-6.92Z"/><path class="cls-1" d="M1148.13,345.85v-61h8.81V312l17.89-27.16h11.91l-16.51,23.78,17.38,37.23h-11.43l-12.08-28.67-7.16,10.23v18.44Z"/></g></g></svg>