<svg xmlns="http://www.w3.org/2000/svg" viewBox="0 0 647.12 944.54"><defs><style>.cls-1{fill:#53c2ba;}</style></defs><g id="Layer_2" data-name="Layer 2"><g id="Layer_1-2" data-name="Layer 1"><path class="cls-1" d="M450.59,329.33a102.55,102.55,0,0,0-117.91-84.59l-95.82,15.77a5.5,5.5,0,0,0-4.54,6.32l31.49,191.4a5.51,5.51,0,0,0,5.43,4.61,5.42,5.42,0,0,0,.89-.07l96-15.55A102.68,102.68,0,0,0,450.59,329.33Z"/><path class="cls-1" d="M564.65,119.63C498.24,42.48,412.61,0,323.56,0S148.88,42.48,82.46,119.63C19.25,193,0,287.84,0,379.72c0,99.75,155.09,364,257.67,512.7a5.53,5.53,0,0,0,9.85-4.71l-112-680.77L322,179.55a170.33,170.33,0,0,1,27.47-2.25A168,168,0,0,1,515.77,318.6c15.1,91.78-47.28,178.72-139,193.82L280.88,528a5.5,5.5,0,0,0-4.55,6.33l66.74,405.65a5.49,5.49,0,0,0,4.18,4.47,5.38,5.38,0,0,0,1.25.14,5.53,5.53,0,0,0,4.48-2.3c93.55-131,294.14-448.1,294.14-562.52C647.12,287.84,627.87,193,564.65,119.63Z"/></g></g></svg>