<svg xmlns="http://www.w3.org/2000/svg" viewBox="0 0 1195.83 390.9"><defs><style>.cls-1,.cls-2{fill:#19202c;}.cls-2{opacity:0.7;}</style></defs><g id="Layer_2" data-name="Layer 2"><g id="Layer_1-2" data-name="Layer 1"><path class="cls-1" d="M200.11,136.29c-3.64-20.61-22.54-35.57-44.94-35.57a48.83,48.83,0,0,0-7.43.57l-42.55,6.52a2.3,2.3,0,0,0-2,2.62l14,79.21a2.41,2.41,0,0,0,2.41,1.91l.4,0,42.61-6.44C187.36,181.29,204.19,159.4,200.11,136.29Z"/><path class="cls-1" d="M250.77,49.51C221.27,17.58,183.25,0,143.7,0S66.12,17.58,36.62,49.51C8.55,79.89,0,119.12,0,157.15c0,41.28,68.88,150.66,114.44,212.18a2.47,2.47,0,0,0,2,1,2.36,2.36,0,0,0,2.42-2.28,2.05,2.05,0,0,0-.1-.65L69.07,85.64,143,74.31a80.64,80.64,0,0,1,12.2-.93c36.83,0,67.9,24.59,73.88,58.48,6.71,38-21,74-61.75,80.21l-42.57,6.42a2.49,2.49,0,0,0-1.59.92,2.15,2.15,0,0,0-.43,1.7L152.36,389a2.36,2.36,0,0,0,1.86,1.85,2.57,2.57,0,0,0,.55.06,2.51,2.51,0,0,0,2-.95c41.55-54.22,130.63-185.45,130.63-232.8C287.39,119.12,278.84,79.89,250.77,49.51Z"/><path class="cls-1" d="M335.48,237.93l-18.19,62.56h-23.4l59.53-198.91h27.29l59.78,198.91H416.32L397.6,237.93Zm57.45-20.07-17.16-57.25c-3.9-13-6.5-24.79-9.1-36.3h-.52c-2.6,11.8-5.46,23.9-8.84,36l-17.15,57.55Z"/><path class="cls-1" d="M460.85,104.24c11.43-2.66,27.81-4.13,43.41-4.13,24.17,0,39.77,5,50.68,16.23,8.84,8.85,13.78,22.43,13.78,37.78,0,26.26-14.56,43.67-33,50.76v.88c13.52,5.31,21.57,19.48,25.73,40.14,5.72,27.74,9.88,46.92,13.52,54.59h-23.4c-2.85-5.6-6.75-22.72-11.69-47.51-5.2-27.45-14.56-37.78-35.09-38.66H483.46v86.17H460.85Zm22.61,90.6H506.6c24.17,0,39.51-15.05,39.51-37.77,0-25.68-16.38-36.89-40.29-37.19-10.92,0-18.72,1.18-22.36,2.36Z"/><path class="cls-1" d="M598.53,101.58h22.62V197.5h.78c4.68-7.68,9.36-14.76,13.78-21.25l53.54-74.67h28.07L653.9,186l68.36,114.5H695.49l-57.71-97.68-16.63,21.84v75.84H598.53Z"/><path class="cls-2" d="M738.61,104A231.31,231.31,0,0,1,782,100.11c22.36,0,38.73,5.9,49.13,16.52,9.62,9.45,15.33,23.91,15.33,41.62,0,18-4.67,32.16-13.51,42.49-12,14.46-31.45,21.84-53.55,21.84-6.76,0-13-.29-18.19-1.77v79.68H738.61Zm22.62,95.91c4.93,1.47,11.17,2.06,18.71,2.06,27.29,0,43.93-15,43.93-42.49,0-26.27-16.38-39-41.33-39-9.88,0-17.41.89-21.31,2.07Z"/><path class="cls-2" d="M891.4,101.58V300.49H868.79V101.58Z"/><path class="cls-2" d="M1050.59,294c-8.32,4.72-25,9.45-46.27,9.45-49.39,0-86.56-35.42-86.56-100.64,0-62.27,37.17-104.47,91.5-104.47,21.83,0,35.61,5.31,41.59,8.85l-5.46,20.95c-8.58-4.72-20.8-8.26-35.35-8.26-41.07,0-68.37,29.81-68.37,82,0,48.7,24.7,80,67.33,80,13.77,0,27.81-3.24,36.91-8.26Z"/><path class="cls-2" d="M1072.11,101.58h22.61V197.5h.78c4.68-7.68,9.36-14.76,13.78-21.25l53.54-74.67h28.08L1127.47,186l68.36,114.5h-26.77l-57.7-97.68-16.64,21.84v75.84h-22.61Z"/></g></g></svg>