<svg xmlns="http://www.w3.org/2000/svg" viewBox="0 0 1919.56 1080"><defs><style>.cls-1{fill:#55c2b3;}.cls-2,.cls-3{fill:#19202c;}.cls-3{opacity:0.7;}</style></defs><g id="Layer_2" data-name="Layer 2"><g id="Layer_1-2" data-name="Layer 1"><rect class="cls-1" width="1919.56" height="1080"/><path class="cls-2" d="M589.88,480.84c-3.64-20.61-22.54-35.57-44.94-35.57a48.6,48.6,0,0,0-7.42.57L495,452.36a2.31,2.31,0,0,0-2,2.62l14,79.21a2.4,2.4,0,0,0,2.41,1.91l.39,0,42.62-6.44C577.13,525.84,594,504,589.88,480.84Z"/><path class="cls-2" d="M640.54,394.06c-29.49-31.93-67.52-49.51-107.07-49.51s-77.58,17.58-107.07,49.51c-28.08,30.38-36.63,69.61-36.63,107.64,0,41.28,68.88,150.66,114.44,212.18a2.5,2.5,0,0,0,2.05,1,2.27,2.27,0,0,0,2.33-2.93L458.84,430.19l73.92-11.33a80.54,80.54,0,0,1,12.2-.93c36.82,0,67.89,24.59,73.87,58.47,6.71,38-21,74-61.74,80.22L514.52,563a2.49,2.49,0,0,0-1.6.92,2.18,2.18,0,0,0-.43,1.7l29.64,167.88a2.37,2.37,0,0,0,1.86,1.85,2.67,2.67,0,0,0,.56.06,2.53,2.53,0,0,0,2-1c41.54-54.22,130.63-185.45,130.63-232.8C677.17,463.67,668.62,424.44,640.54,394.06Z"/><path class="cls-2" d="M721.88,542,703.8,598.61H680.56L739.7,418.7h27.11L826.2,598.61h-24L783.6,542ZM779,523.87,761.9,472.08c-3.87-11.74-6.45-22.42-9-32.83h-.52c-2.58,10.68-5.42,21.62-8.78,32.57l-17,52.05Z"/><path class="cls-2" d="M846.42,421.1c11.36-2.4,27.63-3.74,43.12-3.74,24,0,39.51,4.54,50.35,14.68,8.78,8,13.69,20.29,13.69,34.17,0,23.76-14.46,39.51-32.79,45.91v.81c13.42,4.8,21.43,17.61,25.56,36.3,5.68,25.09,9.81,42.44,13.43,49.38H936.54c-2.84-5.07-6.72-20.55-11.62-43-5.17-24.83-14.46-34.17-34.86-35H868.88v77.94H846.42Zm22.46,81.95h23c24,0,39.25-13.61,39.25-34.17,0-23.22-16.27-33.37-40-33.63-10.84,0-18.59,1.06-22.21,2.13Z"/><path class="cls-2" d="M983.19,418.7h22.47v86.75h.78c4.64-6.94,9.29-13.35,13.68-19.22l53.19-67.53h27.89l-63,76.34,67.91,103.57h-26.6l-57.32-88.35L1005.66,530v68.6H983.19Z"/><path class="cls-3" d="M1122.35,420.83a251.89,251.89,0,0,1,43.12-3.47c22.21,0,38.48,5.34,48.81,14.95,9.55,8.54,15.23,21.62,15.23,37.64,0,16.28-4.65,29.09-13.43,38.44-11.87,13.08-31.24,19.75-53.19,19.75-6.71,0-12.91-.27-18.08-1.6v72.07h-22.46Zm22.46,86.76c4.91,1.33,11.11,1.87,18.6,1.87,27.11,0,43.64-13.62,43.64-38.44,0-23.76-16.27-35.24-41.06-35.24-9.81,0-17.3.8-21.18,1.87Z"/><path class="cls-3" d="M1274.13,418.7V598.61h-22.47V418.7Z"/><path class="cls-3" d="M1432.26,592.74c-8.26,4.27-24.79,8.54-46,8.54-49.06,0-86-32-86-91,0-56.33,36.93-94.5,90.9-94.5,21.69,0,35.37,4.8,41.31,8l-5.42,19c-8.52-4.27-20.66-7.47-35.12-7.47-40.8,0-67.91,27-67.91,74.21,0,44,24.53,72.33,66.88,72.33,13.68,0,27.63-2.93,36.66-7.47Z"/><path class="cls-3" d="M1453.64,418.7h22.46v86.75h.78c4.65-6.94,9.29-13.35,13.68-19.22l53.2-67.53h27.89l-63,76.34,67.91,103.57H1550l-57.32-88.35L1476.1,530v68.6h-22.46Z"/><path class="cls-2" d="M688.42,690.4V639.71h-13V629.39h34.77v10.32h-13V690.4Z"/><path class="cls-2" d="M718,690.4v-61h8.81v24h17.36v-24H753v61h-8.82V663.72H726.85V690.4Z"/><path class="cls-2" d="M764.78,690.4v-61h32.48v10.32H773.59v13.53h22v10.28h-22v16.56h24.47V690.4Z"/><path class="cls-2" d="M830,690.4v-61h32.47v10.32H838.83v13.53h22v10.28h-22v16.56H863.3V690.4Z"/><path class="cls-2" d="M913.88,690.4H904.3l-3.83-13.82H883l-3.62,13.82h-9.4l17.05-61h9.35Zm-16.26-24.14-6-22.63-5.93,22.63Z"/><path class="cls-2" d="M917.85,670.51l8.63-1.17Q927.94,681,936,681a8.3,8.3,0,0,0,6.3-2.39,8.21,8.21,0,0,0,2.29-5.92,7.18,7.18,0,0,0-.8-3.54,6.11,6.11,0,0,0-2.44-2.39,63,63,0,0,0-7.93-3.14,25.31,25.31,0,0,1-8.27-4.24,15.89,15.89,0,0,1-4.17-6,20.62,20.62,0,0,1-1.54-8,19.92,19.92,0,0,1,2-9,13.94,13.94,0,0,1,5.48-6,16.88,16.88,0,0,1,8.63-2q7.71,0,12.05,4.79t4.59,13.69l-8.85.54q-.58-4.9-2.51-6.87a7.4,7.4,0,0,0-5.5-2,8.08,8.08,0,0,0-5.5,1.7,5.42,5.42,0,0,0-1.93,4.23,5.63,5.63,0,0,0,1.75,4.19c1.17,1.13,3.86,2.38,8.05,3.74q6.66,2.21,9.63,4.64a15.47,15.47,0,0,1,4.53,6.28,24.89,24.89,0,0,1,1.57,9.34A20.89,20.89,0,0,1,949.15,686q-4.29,5.41-13.38,5.41Q919.68,691.44,917.85,670.51Z"/><path class="cls-2" d="M963.18,690.4v-61H972v61Z"/><path class="cls-2" d="M983.43,690.4v-61h32.48v10.32H992.24v13.53h22v10.28h-22v16.56h24.47V690.4Z"/><path class="cls-2" d="M1023.6,670.51l8.63-1.17q1.45,11.7,9.54,11.69a8.3,8.3,0,0,0,6.3-2.39,8.21,8.21,0,0,0,2.29-5.92,7.29,7.29,0,0,0-.8-3.54,6.17,6.17,0,0,0-2.44-2.39,63.41,63.41,0,0,0-7.94-3.14,25.34,25.34,0,0,1-8.26-4.24,15.77,15.77,0,0,1-4.17-6,20.63,20.63,0,0,1-1.55-8,19.79,19.79,0,0,1,2-9,13.94,13.94,0,0,1,5.48-6,16.84,16.84,0,0,1,8.62-2q7.73,0,12.06,4.79t4.58,13.69l-8.84.54q-.58-4.9-2.52-6.87a7.38,7.38,0,0,0-5.49-2,8.06,8.06,0,0,0-5.5,1.7,5.39,5.39,0,0,0-1.93,4.23,5.59,5.59,0,0,0,1.75,4.19q1.75,1.7,8,3.74,6.66,2.21,9.63,4.64a15.66,15.66,0,0,1,4.53,6.28,24.9,24.9,0,0,1,1.56,9.34,20.83,20.83,0,0,1-4.28,13.36q-4.28,5.41-13.38,5.41Q1025.42,691.44,1023.6,670.51Z"/><path class="cls-2" d="M1078.31,690.4V639.71h-13V629.39h34.77v10.32h-13V690.4Z"/><path class="cls-2" d="M1136.49,690.4l-10.49-61h9.07l6.57,41.93,8-41.93h10.53l7.68,42.64,6.76-42.64h8.88l-10.63,61h-9.41l-8.74-45.63-8.66,45.63Z"/><path class="cls-2" d="M1227.85,690.4h-9.58l-3.84-13.82h-17.52l-3.62,13.82h-9.39l17-61h9.36Zm-16.26-24.14-6-22.63-5.93,22.63Z"/><path class="cls-2" d="M1240.89,690.4V664.71l-16-35.32h10.34l10.28,24.13,10.14-24.13h10.16L1249.7,664.8v25.6Z"/><path class="cls-2" d="M1304.49,690.4V639.71h-13V629.39h34.77v10.32h-13V690.4Z"/><path class="cls-2" d="M1331.42,660.27q0-10.9,2.82-18t7.38-10.5a17.66,17.66,0,0,1,11-3.46q9.39,0,15.31,8.2t5.91,23.35q0,15.3-6.26,23.92a18.57,18.57,0,0,1-29.93.09Q1331.43,675.29,1331.42,660.27Zm9.1-.42q0,10.53,3.5,15.8t8.68,5.26q5.22,0,8.64-5.22t3.43-16q0-10.62-3.33-15.69t-8.74-5.08c-3.6,0-6.52,1.71-8.79,5.12S1340.52,652.7,1340.52,659.85Z"/><path class="cls-2" d="M1405.25,690.4v-61h14.2q7.93,0,10.38.88a12.24,12.24,0,0,1,6.42,6q2.54,4.62,2.53,11.9a25.25,25.25,0,0,1-2.18,11.09,13.81,13.81,0,0,1-5.46,6.29q-3.29,1.8-11.29,1.81h-5.79v23Zm8.81-50.69v17.36H1419c3.28,0,5.52-.27,6.7-.8a6.27,6.27,0,0,0,2.9-2.85,10.5,10.5,0,0,0,1.13-5.07,10.35,10.35,0,0,0-1.17-5.13,6.09,6.09,0,0,0-2.88-2.8c-1.14-.47-3.57-.71-7.26-.71Z"/><path class="cls-2" d="M1483.73,690.4h-9.58l-3.83-13.82H1452.8l-3.62,13.82h-9.39l17-61h9.36Zm-16.25-24.14-6-22.63-5.93,22.63Z"/><path class="cls-2" d="M1491.11,690.4v-61h18.6q7.14,0,10.2,1.65a12.13,12.13,0,0,1,5,5.7,22.07,22.07,0,0,1,2,9.71q0,7.17-3,11.53a13.06,13.06,0,0,1-8.53,5.49,24.07,24.07,0,0,1,4.69,5.1,74.64,74.64,0,0,1,5.06,9.93l5.32,11.9h-10.54l-6.4-13.28a89.41,89.41,0,0,0-4.69-9,7.25,7.25,0,0,0-2.62-2.49,10.54,10.54,0,0,0-4.44-.69h-1.82V690.4Zm8.81-35.21h6.55q6,0,7.65-.6a5.06,5.06,0,0,0,2.66-2.43,10.13,10.13,0,0,0,1-4.87,9.44,9.44,0,0,0-1-4.68,5.41,5.41,0,0,0-2.77-2.44c-.83-.3-3.22-.46-7.17-.46h-6.92Z"/><path class="cls-2" d="M1537.9,690.4v-61h8.81v27.16l17.9-27.16h11.9L1560,653.17l17.38,37.23H1566l-12.07-28.67L1546.71,672V690.4Z"/></g></g></svg>